<svg xmlns="http://www.w3.org/2000/svg" width="277.59814453125" height="333.2513427734375" viewBox="27.005966186523438 -101.69888305664062 277.59814453125 333.2513427734375"><title>Neo4j Graph Visualization</title><desc>Created using Neo4j (http://www.neo4j.com/)</desc><g class="layer relationships"><g class="relationship" transform="translate(223.6704245902897 -30.308771032115146) rotate(497.26558845608906)"><path class="outline" fill="#A5ABB6" stroke="none" d="M 25 0.5 L 37.114355428308244 0.5 L 37.114355428308244 -0.5 L 25 -0.5 Z M 83.85654292830824 0.5 L 95.97089835661649 0.5 L 95.97089835661649 3.5 L 102.97089835661649 0 L 95.97089835661649 -3.5 L 95.97089835661649 -0.5 L 83.85654292830824 -0.5 Z"/><text text-anchor="middle" pointer-events="none" font-size="8px" fill="#000000" x="60.485449178308244" y="3" transform="rotate(180 60.485449178308244 0)" font-family="sans-serif">CONTAINS</text></g><g class="relationship" transform="translate(129.6748830283974 56.532400037176885) rotate(405.0306752723738)"><path class="outline" fill="#A5ABB6" stroke="none" d="M 25 0.5 L 33.097246590409995 0.5 L 33.097246590409995 -0.5 L 25 -0.5 Z M 79.83943409041 0.5 L 87.93668068081999 0.5 L 87.93668068081999 3.5 L 94.93668068081999 0 L 87.93668068081999 -3.5 L 87.93668068081999 -0.5 L 79.83943409041 -0.5 Z"/><text text-anchor="middle" pointer-events="none" font-size="8px" fill="#000000" x="56.468340340409995" y="3" font-family="sans-serif">CONTAINS</text></g><g class="relationship" transform="translate(214.4375061880686 141.38583301324775) rotate(225.03067527237386)"><path class="outline" fill="#A5ABB6" stroke="none" d="M 6.953439040707552 24.018736134675446 L 17.306200844808384 62.65576918623819 A 17.916697508022974 17.916697508022974 0 1 1 -17.306200844808384 62.65576918623819 L -8.765172356425198 30.780216918698923 L -4.901469051268926 31.815493099109005 L -6.4704761275630185 24.148145657226706 L -11.662949835292403 30.00375978339136 L -7.79924653013613 31.039035963801442 L -16.340275018519314 62.91458823134071 A 16.916697508022974 16.916697508022974 0 1 0 16.340275018519314 62.91458823134071 L 5.987513214418485 24.277555179777966 Z"/><text text-anchor="middle" pointer-events="none" font-size="8px" fill="#000000" x="0" y="94.20964923467838" transform="rotate(180 0 91.20964923467838)" font-family="sans-serif">ATTACKS</text></g><g class="relationship" transform="translate(214.4375061880686 141.38583301324775) rotate(315.03067527237386)"><path class="outline" fill="#A5ABB6" stroke="none" d="M 6.953439040707552 24.018736134675446 L 17.306200844808384 62.65576918623819 A 17.916697508022974 17.916697508022974 0 1 1 -17.306200844808384 62.65576918623819 L -8.765172356425198 30.780216918698923 L -4.901469051268926 31.815493099109005 L -6.4704761275630185 24.148145657226706 L -11.662949835292403 30.00375978339136 L -7.79924653013613 31.039035963801442 L -16.340275018519314 62.91458823134071 A 16.916697508022974 16.916697508022974 0 1 0 16.340275018519314 62.91458823134071 L 5.987513214418485 24.277555179777966 Z"/><text text-anchor="middle" pointer-events="none" font-size="8px" fill="#000000" x="0" y="94.20964923467838" font-family="sans-serif">USES</text></g><g class="relationship" transform="translate(112.92596537392328 -72.69888301879905) rotate(380.9455521947154)"><path class="outline" fill="#A5ABB6" stroke="none" d="M 25 0.5 L 37.90336651172199 0.5 L 37.90336651172199 -0.5 L 25 -0.5 Z M 73.676804011722 0.5 L 86.58017052344398 0.5 L 86.58017052344398 3.5 L 93.58017052344398 0 L 86.58017052344398 -3.5 L 86.58017052344398 -0.5 L 73.676804011722 -0.5 Z"/><text text-anchor="middle" pointer-events="none" font-size="8px" fill="#000000" x="55.79008526172199" y="3" font-family="sans-serif">WROTE</text></g><g class="relationship" transform="translate(129.6748830283974 56.532400037176885) rotate(486.5823116716909)"><path class="outline" fill="#A5ABB6" stroke="none" d="M 25 0.5 L 27.598136814805926 0.5 L 27.598136814805926 -0.5 L 25 -0.5 Z M 89.01219931480593 0.5 L 91.61033612961185 0.5 L 91.61033612961185 3.5 L 98.61033612961185 0 L 91.61033612961185 -3.5 L 91.61033612961185 -0.5 L 89.01219931480593 -0.5 Z"/><text text-anchor="middle" pointer-events="none" font-size="8px" fill="#000000" x="58.305168064805926" y="3" transform="rotate(180 58.305168064805926 0)" font-family="sans-serif">INSTANCE_OF</text></g><g class="relationship" transform="translate(214.4375061880686 141.38583301324775) rotate(405.03067527237386)"><path class="outline" fill="#A5ABB6" stroke="none" d="M 6.953439040707552 24.018736134675446 L 17.306200844808384 62.65576918623819 A 17.916697508022974 17.916697508022974 0 1 1 -17.306200844808384 62.65576918623819 L -8.765172356425198 30.780216918698923 L -4.901469051268926 31.815493099109005 L -6.4704761275630185 24.148145657226706 L -11.662949835292403 30.00375978339136 L -7.79924653013613 31.039035963801442 L -16.340275018519314 62.91458823134071 A 16.916697508022974 16.916697508022974 0 1 0 16.340275018519314 62.91458823134071 L 5.987513214418485 24.277555179777966 Z"/><text text-anchor="middle" pointer-events="none" font-size="8px" fill="#000000" x="0" y="94.20964923467838" font-family="sans-serif">SUPPORTS</text></g></g><g class="layer nodes"><g class="node" transform="translate(112.92596537392328,-72.69888301879905)"><circle class="outline" cx="0" cy="0" r="25" fill="#6DCE9E" stroke="#60B58B" stroke-width="2px"/><text text-anchor="middle" pointer-events="none" font-family="sans-serif" dy="1.5625" font-size="25" fill="#FFFFFF"/><text text-anchor="middle" pointer-events="none" y="5" font-size="10px" fill="#FFFFFF" font-family="sans-serif"> Author</text></g><g class="node" transform="translate(214.4375061880686,141.38583301324775)"><circle class="outline" cx="0" cy="0" r="25" fill="#FB95AF" stroke="#E0849B" stroke-width="2px"/><text text-anchor="middle" pointer-events="none" font-family="sans-serif" dy="1.5625" font-size="25" fill="#FFFFFF"/><text text-anchor="middle" pointer-events="none" y="5" font-size="10px" fill="#FFFFFF" font-family="sans-serif"> Doctrine</text></g><g class="node" transform="translate(129.6748830283974,56.532400037176885)"><circle class="outline" cx="0" cy="0" r="25" fill="#68BDF6" stroke="#5CA8DB" stroke-width="2px"/><text text-anchor="middle" pointer-events="none" font-family="sans-serif" dy="1.5625" font-size="25" fill="#FFFFFF"/><text text-anchor="middle" pointer-events="none" y="5" font-size="10px" fill="#FFFFFF" font-family="sans-serif"> Question</text></g><g class="node" transform="translate(56.00596559779068,155.79168576238283)"><circle class="outline" cx="0" cy="0" r="25" fill="#FFD86E" stroke="#EDBA39" stroke-width="2px"/><text text-anchor="middle" pointer-events="none" font-family="sans-serif" dy="1.5625" font-size="25" fill="#604A0E"/><text text-anchor="middle" pointer-events="none" y="5" font-size="10px" fill="#604A0E" font-family="sans-serif"> Questio…</text></g><g class="node" transform="translate(223.6704245902897,-30.308771032115146)"><circle class="outline" cx="0" cy="0" r="25" fill="#FF756E" stroke="#E06760" stroke-width="2px"/><text text-anchor="middle" pointer-events="none" font-family="sans-serif" dy="1.5625" font-size="25" fill="#FFFFFF"/><text text-anchor="middle" pointer-events="none" y="5" font-size="10px" fill="#FFFFFF" font-family="sans-serif"> Text</text></g></g></svg>